# xmcd CD database file
#
# Track frame offsets:
#	150
#	28027
#	61680
#	96655
#	142347
#	183132
#	215780
#	238045
#	267555
#	296317
#	324797
#
# Disc length: 4638 seconds
#
# Revision: 0
# Processed by: cddbd v1.4PL0 Copyright (c) Steve Scherf et al.
# Submitted via: CDex 1.50Beta7
#
DISCID=a8121c0b
DTITLE=Charles Kynard - The Soul Brotherhood (1969) and Reelin' with the Feelin' (1969)
DYEAR=1969
DGENRE=Jazz
TTITLE0=The Soul Brotherhood
TTITLE1=Big City
TTITLE2=Jealjon
TTITLE3=Piece O' Pisces
TTITLE4=Blue Farouq
TTITLE5=Reelin' with the Feelin'
TTITLE6=Soul Reggae
TTITLE7=Slow Burn
TTITLE8=Boogalooin'
TTITLE9=Be My Love
TTITLE10=Stomp
EXTD=YEAR: 1969
EXTT0=
EXTT1=
EXTT2=
EXTT3=
EXTT4=
EXTT5=
EXTT6=
EXTT7=
EXTT8=
EXTT9=
EXTT10=
PLAYORDER=
